<?xml version="1.0" encoding="UTF-8"?>
<svg version="1.1" xmlns="http://www.w3.org/2000/svg" width="256" height="256">
<path d="M0 0 C2.52840576 -0.08083713 4.44524448 0.10778982 6.88671875 0.8046875 C8.66397095 2.53630066 8.66397095 2.53630066 10.30322266 4.78588867 C10.90281799 5.60382904 11.50241333 6.42176941 12.12017822 7.26449585 C14.80099696 11.11937111 17.38793268 15.02016173 19.91015625 18.98046875 C21.04715569 20.74735554 22.184878 22.51377733 23.32324219 24.27978516 C23.90763062 25.18794983 24.49201904 26.0961145 25.09411621 27.03179932 C28.07059862 31.63597271 31.09166917 36.21052302 34.11328125 40.78515625 C34.72024841 41.70499298 35.32721558 42.62482971 35.95257568 43.57254028 C38.42770845 47.32300276 40.9042682 51.07252196 43.38085938 54.82202148 C51.27635729 66.77791355 59.12957401 78.75849728 66.88671875 90.8046875 C70.91692827 87.42196515 74.80026155 84.00611572 78.4453125 80.203125 C79.24388672 79.38328125 80.04246094 78.5634375 80.86523438 77.71875 C82.50658099 76.02395206 84.14200286 74.32339639 85.77148438 72.6171875 C92.87579119 65.35831479 99.60984915 60.78028593 110.01171875 60.4921875 C121.31771935 60.67236281 128.14494361 65.9952395 135.88671875 73.8046875 C136.68335938 74.71927734 136.68335938 74.71927734 137.49609375 75.65234375 C141.20750762 79.89544893 144.32065899 80.67218071 149.71484375 81.28515625 C151.88671875 81.8046875 151.88671875 81.8046875 153.88671875 84.8046875 C154.22165772 87.81913823 154.44235268 89.90369352 153.88671875 92.8046875 C151.88671875 95.2421875 151.88671875 95.2421875 148.88671875 96.8046875 C147.66984375 96.8459375 146.45296875 96.8871875 145.19921875 96.9296875 C139.74453193 97.42398215 136.68221664 100.89707782 133.02368164 104.69335938 C129.18546055 110.28164791 129.70806506 115.92475495 129.94921875 122.4921875 C129.96588737 125.17611968 129.94719266 127.8589035 129.93359375 130.54296875 C129.93552734 131.80963379 129.93746094 133.07629883 129.93945312 134.38134766 C129.57367859 158.12621135 116.43049331 181.42402754 99.88671875 197.8046875 C86.63090315 210.03785649 71.2997736 218.23426884 53.88671875 222.8046875 C53.10312988 223.0200415 52.31954102 223.23539551 51.51220703 223.45727539 C45.71039002 224.79874554 40.48095141 224.71133297 34.58984375 224.12890625 C18.10075121 222.25373081 18.10075121 222.25373081 2.86981201 227.1986084 C-1.77641809 231.41623975 -5.56253451 236.44433259 -9.42578125 241.3671875 C-16.00515134 249.71896545 -22.08366273 256.47478188 -32.96044922 258.31689453 C-75.40090705 262.92203646 -75.40090705 262.92203646 -84.71912861 255.5309515 C-86.90645184 252.82256991 -86.77277979 250.58236619 -86.64336967 247.19517326 C-85.63157049 242.63236557 -82.44338872 239.97147632 -79.15258789 236.83813477 C-78.41292282 236.09876175 -77.67325775 235.35938873 -76.91117859 234.59761047 C-74.46917561 232.16694567 -71.99700691 229.76959154 -69.5234375 227.37109375 C-67.8198671 225.6868574 -66.11835036 224.0005415 -64.41880798 222.3122406 C-59.94556347 217.87897655 -55.44640274 213.47297224 -50.94085693 209.0725708 C-45.46129401 203.71130054 -40.01246508 198.31883351 -34.55918789 192.93085384 C-30.31840893 188.74198873 -26.07313636 184.55801851 -21.8139801 180.38783264 C-21.03389587 179.62256256 -20.25381165 178.85729248 -19.4500885 178.0688324 C-17.98904151 176.63598608 -16.52603537 175.2051338 -15.0607605 173.77661133 C-14.41991013 173.14739273 -13.77905975 172.51817413 -13.11878967 171.86988831 C-12.55926133 171.32297112 -11.99973299 170.77605394 -11.42324924 170.21256351 C-10.00275185 168.81851989 -10.00275185 168.81851989 -9.11328125 166.8046875 C-10.41265625 166.7634375 -11.71203125 166.7221875 -13.05078125 166.6796875 C-31.57580681 164.76962131 -48.91903135 154.22180155 -63.11328125 142.8046875 C-63.7165625 142.34320313 -64.31984375 141.88171875 -64.94140625 141.40625 C-79.04970854 130.34237084 -89.60418277 113.02982145 -95.86328125 96.4921875 C-96.14510254 95.75863037 -96.42692383 95.02507324 -96.71728516 94.26928711 C-102.16595794 79.17727673 -102.61755473 64.49441748 -102.55932617 48.62109375 C-102.55069879 45.02027311 -102.57985886 41.42098184 -102.61132812 37.8203125 C-102.61293753 35.52864631 -102.61236762 33.23697731 -102.609375 30.9453125 C-102.62060898 29.87041565 -102.63184296 28.7955188 -102.64341736 27.68804932 C-102.63403641 26.69561218 -102.62465546 25.70317505 -102.61499023 24.68066406 C-102.61482407 23.80879456 -102.6146579 22.93692505 -102.61448669 22.03863525 C-102.11328125 19.8046875 -102.11328125 19.8046875 -100.29350281 18.03729248 C-96.80742222 16.06641008 -93.93166133 16.02671883 -90.11328125 16.8046875 C-85.33395429 18.66939423 -80.82413733 21.00731666 -76.27734375 23.3671875 C-74.94912279 24.04131164 -73.62011903 24.71389544 -72.29037476 25.38500977 C-68.80867731 27.14669929 -65.33669911 28.92671358 -61.86682129 30.71154785 C-56.29502009 33.57301942 -50.70778591 36.40430191 -45.12244797 39.23922729 C-43.17330341 40.23151715 -41.227684 41.23044592 -39.28262329 42.23071289 C-38.10735077 42.83133545 -36.93207825 43.43195801 -35.72119141 44.05078125 C-34.68386871 44.58372803 -33.64654602 45.1166748 -32.57778931 45.66577148 C-30.26318686 46.94452038 -30.26318686 46.94452038 -28.11328125 46.8046875 C-27.69820313 45.8559375 -27.283125 44.9071875 -26.85546875 43.9296875 C-22.6981692 34.66498093 -17.98053914 25.8263683 -12.86328125 17.0546875 C-12.26112793 16.01957031 -11.65897461 14.98445312 -11.03857422 13.91796875 C-3.64853974 1.38927761 -3.64853974 1.38927761 0 0 Z M1.88671875 24.8046875 C-0.0410911 28.08994389 -1.95337798 31.38399395 -3.86328125 34.6796875 C-4.40210937 35.5975 -4.9409375 36.5153125 -5.49609375 37.4609375 C-6.02460937 38.37617187 -6.553125 39.29140625 -7.09765625 40.234375 C-7.57944336 41.06179199 -8.06123047 41.88920898 -8.55761719 42.74169922 C-10.70987042 46.97932776 -12.40249333 51.37373457 -14.11328125 55.8046875 C-7.11180411 59.35169342 -0.10607203 62.89013269 6.90527153 66.41758823 C10.1605189 68.05566514 13.41420616 69.69669583 16.66455078 71.34448242 C19.79926639 72.93351404 22.93778562 74.51477796 26.07913589 76.09065056 C27.86447572 76.98883392 29.64574641 77.89509068 31.42697144 78.80140686 C32.50794098 79.34204269 33.58891052 79.88267853 34.70263672 80.43969727 C35.65749969 80.92156998 36.61236267 81.40344269 37.59616089 81.8999176 C38.72998703 82.3477787 38.72998703 82.3477787 39.88671875 82.8046875 C40.54671875 82.4746875 41.20671875 82.1446875 41.88671875 81.8046875 C40.90489392 80.33195026 39.92306555 78.85921539 38.94122314 77.38648987 C38.05636073 76.0591652 37.17155631 74.73180188 36.2868042 73.40440369 C33.81786297 69.70043186 31.34787619 65.99716428 28.87597656 62.29516602 C24.20699513 55.30057615 19.54694606 48.30096237 14.93359375 41.26953125 C14.19421109 40.14635225 13.45463463 39.02330079 12.71484375 37.90039062 C11.34984659 35.82595416 9.99029045 33.74792522 8.63671875 31.66601562 C8.0334375 30.75142578 7.43015625 29.83683594 6.80859375 28.89453125 C6.2887793 28.09909912 5.76896484 27.30366699 5.23339844 26.48413086 C4.78899414 25.92991455 4.34458984 25.37569824 3.88671875 24.8046875 C3.22671875 24.8046875 2.56671875 24.8046875 1.88671875 24.8046875 Z M-87.11328125 37.8046875 C-87.78288143 71.02429631 -82.32126008 99.32844439 -58.96826172 124.39892578 C-41.610064 142.35271986 -18.56929451 151.60416051 6.18603516 152.94628906 C12.30416119 153.37090618 12.30416119 153.37090618 15.42578125 155.6953125 C16.88671875 157.8046875 16.88671875 157.8046875 17.57421875 160.5546875 C16.01646651 167.91860717 7.98849809 173.84414611 2.75805664 179.03100586 C2.08403809 179.70356415 1.41001953 180.37612244 0.71557617 181.06906128 C-0.73246446 182.51332665 -2.18165801 183.95643686 -3.63191032 185.39848137 C-5.9242133 187.67793122 -8.2132989 189.96056919 -10.50160217 192.24403381 C-15.34851587 197.07957765 -20.19937465 201.91115187 -25.05078125 206.7421875 C-30.69808549 212.36590929 -36.34377123 217.99123636 -41.98529243 223.62075996 C-44.24573481 225.87469829 -46.50915449 228.125618 -48.77268982 230.37644958 C-50.14539961 231.7455302 -51.51797107 233.11474952 -52.89038086 234.48413086 C-53.84168633 235.42768684 -53.84168633 235.42768684 -54.81221008 236.39030457 C-56.26499829 237.84291324 -57.69227715 239.32097159 -59.11328125 240.8046875 C-59.11328125 241.1346875 -59.11328125 241.4646875 -59.11328125 241.8046875 C-51.02844524 243.92085263 -41.99371712 245.24534055 -34.11328125 241.8046875 C-24.21051061 235.34945034 -16.15778302 225.49608055 -8.50178528 216.60479736 C-7.72105904 215.70431671 -7.72105904 215.70431671 -6.92456055 214.78564453 C-6.47590134 214.25713898 -6.02724213 213.72863342 -5.56498718 213.18411255 C-2.69857176 210.46041683 -0.00910314 209.55509561 3.89477539 209.56518555 C5.06364037 209.5595887 5.06364037 209.5595887 6.25611877 209.55387878 C7.09456833 209.55801285 7.93301788 209.56214691 8.796875 209.56640625 C10.61133532 209.55095261 12.42578853 209.53464664 14.24023438 209.51757812 C17.06990393 209.50133099 19.89904877 209.49205971 22.72875977 209.49926758 C39.1000957 209.51523395 55.46332986 207.89227389 69.94921875 199.5546875 C70.63983398 199.1740918 71.33044922 198.79349609 72.04199219 198.40136719 C78.04873192 194.96854218 83.06495967 190.76281957 87.88671875 185.8046875 C88.77359375 184.9590625 89.66046875 184.1134375 90.57421875 183.2421875 C91.71890625 182.035625 91.71890625 182.035625 92.88671875 180.8046875 C93.39332031 180.31613281 93.89992187 179.82757813 94.421875 179.32421875 C104.21867737 169.21498988 109.87571774 155.35419205 112.88671875 141.8046875 C113.06090332 141.07338623 113.23508789 140.34208496 113.41455078 139.58862305 C113.99989998 136.13736304 114.05101358 132.80914748 114.09765625 129.30859375 C114.12571802 127.84829595 114.15438244 126.38800963 114.18359375 124.92773438 C114.22482992 122.64575444 114.26175563 120.36399055 114.28808594 118.08178711 C114.31581912 115.8652842 114.3616725 113.6497273 114.41015625 111.43359375 C114.42997559 110.11431885 114.44979492 108.79504395 114.47021484 107.43579102 C115.2024315 101.05228668 118.02703977 97.27916305 122.57421875 92.9296875 C123.38246094 92.14851563 124.19070312 91.36734375 125.0234375 90.5625 C125.63832031 89.98242188 126.25320312 89.40234375 126.88671875 88.8046875 C120.0190312 80.26230233 120.0190312 80.26230233 110.046875 76.58984375 C103.34542803 77.25635294 99.01074398 82.29439258 94.58984375 86.84375 C93.91499939 87.52521088 93.24015503 88.20667175 92.54486084 88.90878296 C90.40155651 91.07539689 88.26872035 93.25195545 86.13671875 95.4296875 C83.98870043 97.61276178 81.83854985 99.79367602 79.68572998 101.97201538 C78.34924039 103.32549442 77.01584731 104.68203941 75.68585205 106.04190063 C75.08472595 106.65278534 74.48359985 107.26367004 73.86425781 107.89306641 C73.33608459 108.43250885 72.80791138 108.97195129 72.26373291 109.52774048 C70.19593541 111.44527186 68.99577973 111.79517484 66.15713882 112.04277039 C62.33537391 111.76455022 59.97789448 110.71713295 56.55999756 108.99536133 C55.95191639 108.69317845 55.34383523 108.39099558 54.71732736 108.07965565 C52.68945768 107.06831217 50.67064289 106.04010044 48.65136719 105.01171875 C47.19614043 104.28162111 45.74037662 103.55259306 44.28411865 102.82455444 C40.33694526 100.8475598 36.39729168 98.85598311 32.45871258 96.86193466 C28.33755429 94.77886763 24.20926384 92.71003778 20.081604 90.63989258 C12.26674238 86.71797937 4.45774212 82.78454928 -3.34893584 78.84637547 C-17.34276075 71.78749309 -31.34642714 64.74816946 -45.35224891 57.71312618 C-50.26982023 55.24248395 -55.18480317 52.7667843 -60.09771013 50.28688049 C-63.14710808 48.74839106 -66.19807664 47.21303594 -69.24941254 45.67839432 C-70.66834599 44.96384291 -72.08657493 44.2478906 -73.50405884 43.53046799 C-75.43239651 42.55467634 -77.36310996 41.5837568 -79.29449463 40.61401367 C-80.37626102 40.06831223 -81.45802742 39.52261078 -82.57257462 38.96037292 C-84.95149985 37.66667215 -84.95149985 37.66667215 -87.11328125 37.8046875 Z " fill="#000000" transform="translate(102.11328125,-0.8046875)"/>
</svg>
