<?xml version="1.0" encoding="UTF-8"?>
<svg version="1.1" xmlns="http://www.w3.org/2000/svg" width="256" height="256">
<path d="M0 0 C1.39671181 -0.01429802 1.39671181 -0.01429802 2.82164001 -0.02888489 C4.33414085 -0.02751778 4.33414085 -0.02751778 5.87719727 -0.02612305 C6.91046646 -0.03040817 7.94373566 -0.0346933 9.00831604 -0.03910828 C11.19645453 -0.04485863 13.38461214 -0.04534667 15.57275391 -0.04101562 C18.9265191 -0.03785788 22.27940076 -0.06129889 25.63305664 -0.08666992 C27.7561024 -0.088943 29.87915054 -0.08964637 32.00219727 -0.08862305 C33.00850693 -0.09783279 34.01481659 -0.10704254 35.05162048 -0.11653137 C35.98591385 -0.11030258 36.92020721 -0.10407379 37.8828125 -0.09765625 C38.70506821 -0.09828568 39.52732391 -0.0989151 40.37449646 -0.0995636 C43.0998321 0.37889232 43.82614334 1.09527461 45.50610352 3.2746582 C45.88362694 5.65006256 45.88362694 5.65006256 45.88705444 8.51257324 C45.89974365 10.14039482 45.89974365 10.14039482 45.91268921 11.80110168 C45.90661652 12.99184799 45.90054382 14.1825943 45.89428711 15.40942383 C45.89954407 16.66325363 45.90480103 17.91708344 45.91021729 19.20890808 C45.92117091 22.64909487 45.91858654 26.08874153 45.90908003 29.52889824 C45.90149097 33.12697966 45.90852694 36.72503781 45.91323853 40.32312012 C45.91869829 46.36576487 45.91149873 52.40829967 45.8972168 58.45092773 C45.88088977 65.43958234 45.88617813 72.4279744 45.90269601 79.41662264 C45.91630465 85.41415548 45.91823362 91.41160922 45.91038001 97.40915251 C45.90570003 100.99244205 45.90508745 104.57560813 45.91498947 108.15888977 C45.9252547 112.15266141 45.9110318 116.14613834 45.89428711 120.13989258 C45.90339615 121.92601204 45.90339615 121.92601204 45.91268921 123.74821472 C45.90422974 124.83342911 45.89577026 125.91864349 45.88705444 127.03674316 C45.88592337 127.98137169 45.88479229 128.92600021 45.88362694 129.89925385 C45.43755022 132.70600043 44.76181618 133.59732325 42.50610352 135.2746582 C40.38122559 135.65560913 40.38122559 135.65560913 37.89868164 135.6628418 C36.96761597 135.67229828 36.03655029 135.68175476 35.07727051 135.6914978 C33.5725116 135.68238876 33.5725116 135.68238876 32.03735352 135.6730957 C30.48957214 135.67740097 30.48957214 135.67740097 28.91052246 135.68179321 C26.72834728 135.68383521 24.54615386 135.67829591 22.36401367 135.66577148 C19.01903451 135.64972025 15.67526373 135.66561611 12.33032227 135.68481445 C10.21183001 135.68283205 8.0933385 135.67898842 5.97485352 135.6730957 C4.97168091 135.6791684 3.9685083 135.68524109 2.93493652 135.6914978 C1.53833801 135.67731308 1.53833801 135.67731308 0.11352539 135.6628418 C-1.11533386 135.65926163 -1.11533386 135.65926163 -2.36901855 135.65560913 C-5.04474932 135.17590058 -5.89012692 134.44618308 -7.49389648 132.2746582 C-8.46728164 129.22008673 -8.6215401 126.42827999 -8.62760925 123.23365784 C-8.63187424 122.21727234 -8.63613922 121.20088684 -8.64053345 120.15370178 C-8.64008026 119.04449875 -8.63962708 117.93529572 -8.63916016 116.79248047 C-8.64251877 115.61974579 -8.64587738 114.44701111 -8.64933777 113.23873901 C-8.65720804 110.02592261 -8.6605152 106.81314499 -8.66115355 103.6003201 C-8.66186485 101.59215026 -8.66400066 99.58398718 -8.66665077 97.57581902 C-8.67589847 90.56746872 -8.67998631 83.55913744 -8.67919922 76.55078125 C-8.67859831 70.02174283 -8.68915406 63.49278701 -8.70494288 56.9637695 C-8.71802379 51.35431135 -8.7233829 45.74488019 -8.72274381 40.13540691 C-8.72248902 36.78682642 -8.72532988 33.43831938 -8.73592186 30.0897541 C-8.74569899 26.3551761 -8.74285268 22.62081178 -8.73681641 18.88623047 C-8.74243591 17.77905167 -8.74805542 16.67187286 -8.75384521 15.53114319 C-8.74965073 14.51193787 -8.74545624 13.49273254 -8.74113464 12.44264221 C-8.74167941 11.56015084 -8.74222418 10.67765947 -8.74278545 9.76842594 C-8.14233521 3.75215511 -6.28136525 0.03523081 0 0 Z " fill="#000000" transform="translate(210.493896484375,120.725341796875)"/>
<path d="M0 0 C1.76928711 1.11669922 1.76928711 1.11669922 3 3 C3.1184082 6.01171875 3.1184082 6.01171875 2.80078125 9.6875 C2.71263602 11.03492645 2.62955728 12.38269199 2.55102539 13.73071289 C2.50930206 14.42987823 2.46757874 15.12904358 2.42459106 15.84939575 C1.37661361 27.7983296 1.37661361 27.7983296 5.859375 38.28515625 C9.24404658 41.16037194 13.02556588 43.05617196 17 45 C19.453125 46.875 19.453125 46.875 21.3125 48.5625 C22.199375 49.366875 23.08625 50.17125 24 51 C25.44430855 53.88861709 25.37688506 55.79647701 25 59 C20.74364261 65.02118851 14.71323529 65.77132223 7.8125 67.3125 C6.70712891 67.57611328 5.60175781 67.83972656 4.46289062 68.11132812 C-3.55783279 70 -3.55783279 70 -6 70 C-6.14695312 70.53625 -6.29390625 71.0725 -6.4453125 71.625 C-8.06991476 77.30177112 -9.94050016 82.88259799 -11.9375 88.4375 C-12.29835693 89.48454102 -12.29835693 89.48454102 -12.66650391 90.55273438 C-14.10006542 94.46054505 -15.24031961 97.03306296 -19 99 C-22.4375 99.5 -22.4375 99.5 -26 99 C-30.78489126 95.04554441 -33.62765834 90.0520896 -36.75 84.75 C-37.72291147 83.11916668 -38.69681618 81.48892535 -39.671875 79.859375 C-40.0956543 79.14233398 -40.51943359 78.42529297 -40.95605469 77.68652344 C-41.89029991 76.03334071 -41.89029991 76.03334071 -43 75 C-49.55477462 73.79392147 -56.1431439 73.70661931 -62.79296875 73.5703125 C-67.62535447 73.39538451 -71.09962501 73.17982379 -75 70 C-76.57945745 66.84108511 -76.35409233 64.49395191 -76 61 C-74.35287948 58.56448906 -72.86050047 56.66887649 -70.875 54.5625 C-69.87105776 53.41409396 -68.86715131 52.26565663 -67.86328125 51.1171875 C-66.22489279 49.2979555 -64.58833018 47.61674633 -62.79296875 45.9453125 C-60.80595658 43.92690285 -59.80113035 42.73380073 -59 40 C-59.5987899 35.10904387 -60.83117852 30.60496034 -62.36499023 25.93457031 C-65.73479242 15.66839865 -65.73479242 15.66839865 -65 10 C-62.75090545 6.89095754 -61.36031164 5.22849819 -57.51171875 4.58203125 C-51.23930956 5.32858051 -45.67523962 8.37942747 -39.96679688 10.9765625 C-39.01740234 11.3890625 -38.06800781 11.8015625 -37.08984375 12.2265625 C-36.23253662 12.61408691 -35.37522949 13.00161133 -34.49194336 13.40087891 C-31.25821273 14.1783429 -29.90926038 13.53545107 -27 12 C-25.60044898 11.10480058 -24.22991591 10.16275663 -22.890625 9.1796875 C-22.13523438 8.64472656 -21.37984375 8.10976562 -20.6015625 7.55859375 C-19.04043579 6.44091001 -17.48817473 5.31073281 -15.9453125 4.16796875 C-10.85800557 0.6068539 -6.29421288 -1.62354508 0 0 Z " fill="#000000" transform="translate(216,0)"/>
<path d="M0 0 C0.91096939 -0.00938095 1.82193878 -0.0187619 2.76051331 -0.02842712 C3.73665085 -0.01719315 4.71278839 -0.00595917 5.71850586 0.00561523 C6.72674911 0.00416 7.73499237 0.00270477 8.77378845 0.00120544 C10.90293267 0.002864 13.03208893 0.01442038 15.16113281 0.03515625 C18.42491385 0.06413409 21.68707318 0.05575937 24.95092773 0.04272461 C27.01929502 0.0489613 29.08765717 0.05735169 31.15600586 0.06811523 C32.13416763 0.0651796 33.11232941 0.06224396 34.12013245 0.05921936 C35.02794968 0.07190353 35.93576691 0.08458771 36.87109375 0.09765625 C38.06878136 0.10576073 38.06878136 0.10576073 39.29066467 0.11402893 C41.93819617 0.60744427 42.69665734 1.42132861 44.37084961 3.50170898 C44.74837303 5.40859222 44.74837303 5.40859222 44.75180054 7.60070801 C44.76448975 8.84989265 44.76448975 8.84989265 44.7774353 10.12431335 C44.77136261 11.03453751 44.76528992 11.94476166 44.7590332 12.88256836 C44.76429016 13.84379105 44.76954712 14.80501373 44.77496338 15.79536438 C44.78818824 18.9788936 44.77941636 22.16192451 44.76928711 25.34545898 C44.77130713 27.55358985 44.77421796 29.76172006 44.77798462 31.96984863 C44.78241135 36.6001622 44.77596558 41.23030228 44.76196289 45.8605957 C44.74487095 51.80279092 44.75471025 57.74457966 44.77268028 63.68675995 C44.78350862 68.24716264 44.78007612 72.80746858 44.77229691 77.36787415 C44.77029227 79.55918933 44.77276336 81.75051323 44.77973557 83.94181824 C44.78733429 87.00173285 44.7757677 90.06098451 44.7590332 93.12084961 C44.76814224 94.48618584 44.76814224 94.48618584 44.7774353 95.87910461 C44.76897583 96.71189438 44.76051636 97.54468414 44.75180054 98.40270996 C44.75066946 99.12610817 44.74953838 99.84950638 44.74837303 100.59482574 C44.25947255 103.06427816 43.32317208 103.96041605 41.37084961 105.50170898 C39.29066467 105.88938904 39.29066467 105.88938904 36.87109375 105.90576172 C35.96327652 105.91844589 35.05545929 105.93113007 34.12013245 105.94419861 C33.14197067 105.94126297 32.1638089 105.93832733 31.15600586 105.93530273 C29.64507607 105.94316551 29.64507607 105.94316551 28.10362244 105.95118713 C25.97273684 105.95761233 23.84181579 105.95626393 21.7109375 105.94775391 C18.44914585 105.93925017 15.18910849 105.96798925 11.92749023 105.99975586 C9.8578293 106.00136808 7.78816526 106.00078994 5.71850586 105.99780273 C4.25429955 106.0146537 4.25429955 106.0146537 2.76051331 106.03184509 C1.39405922 106.01777367 1.39405922 106.01777367 0 106.00341797 C-0.799254 106.0032518 -1.598508 106.00308563 -2.42198181 106.00291443 C-5.69074792 105.26064065 -6.73054172 104.278859 -8.62915039 101.50170898 C-9.21819822 98.40407524 -9.17546168 95.35215693 -9.14672852 92.20678711 C-9.15373779 91.26653183 -9.16074707 90.32627655 -9.16796875 89.35752869 C-9.18557602 86.2490385 -9.17391606 83.14145846 -9.16040039 80.03295898 C-9.16309451 77.87349269 -9.16697626 75.71402757 -9.17199707 73.55456543 C-9.17789583 69.02852836 -9.16931676 64.50280702 -9.15063477 59.97680664 C-9.12784528 54.1725069 -9.14096629 48.36894697 -9.16492462 42.56467438 C-9.17937221 38.10543229 -9.17478132 33.64636588 -9.16441345 29.18711853 C-9.16174331 27.04686903 -9.165026 24.90660362 -9.17433167 22.76637268 C-9.18447991 19.77602841 -9.16901983 16.78688555 -9.14672852 13.79663086 C-9.15482544 12.91027451 -9.16292236 12.02391815 -9.17126465 11.11070251 C-9.11842169 7.28829269 -9.08112704 5.16282835 -6.88612366 1.95213318 C-4.33213348 0.31083366 -3.01297529 0.00062641 0 0 Z " fill="#000000" transform="translate(143.629150390625,150.498291015625)"/>
<path d="M0 0 C1.36172585 -0.01902626 1.36172585 -0.01902626 2.7509613 -0.03843689 C4.21820396 -0.03403343 4.21820396 -0.03403343 5.71508789 -0.02954102 C7.22601768 -0.03740379 7.22601768 -0.03740379 8.76747131 -0.04542542 C10.89835691 -0.05185061 13.02927796 -0.05050221 15.16015625 -0.04199219 C18.4219479 -0.03348845 21.68198526 -0.06222753 24.94360352 -0.09399414 C27.01326445 -0.09560636 29.08292849 -0.09502822 31.15258789 -0.09204102 C32.6167942 -0.10889198 32.6167942 -0.10889198 34.11058044 -0.12608337 C35.47703453 -0.11201195 35.47703453 -0.11201195 36.87109375 -0.09765625 C38.06997475 -0.097407 38.06997475 -0.097407 39.29307556 -0.09715271 C42.44808145 0.61928832 43.59484119 1.81247386 45.50024414 4.40405273 C46.00817871 7.35704041 46.00817871 7.35704041 46.01782227 10.83740234 C46.03043091 12.14233139 46.04303955 13.44726044 46.05603027 14.79173279 C46.04886972 16.21329285 46.04066554 17.63484798 46.03149414 19.05639648 C46.0341899 20.51844033 46.03807302 21.98048242 46.04309082 23.44252014 C46.04898393 26.50498544 46.04043091 29.56698361 46.02172852 32.62939453 C45.9989584 36.54819223 46.01204961 40.46589293 46.03601837 44.38465023 C46.05049916 47.40365302 46.04585975 50.42239742 46.0355072 53.44140816 C46.03284513 54.88585097 46.03609143 56.33031749 46.04542542 57.77473259 C46.05562424 59.7969198 46.03731354 61.8191896 46.01782227 63.84130859 C46.01304871 65.56528114 46.01304871 65.56528114 46.00817871 67.32408142 C45.38293732 71.11536808 44.28304388 72.77992825 41.50024414 75.40405273 C39.29307556 76.0255127 39.29307556 76.0255127 36.87109375 76.01928711 C35.96012436 76.02859253 35.04915497 76.03789795 34.11058044 76.04748535 C32.64637413 76.02289246 32.64637413 76.02289246 31.15258789 75.99780273 C29.64022301 75.99786316 29.64022301 75.99786316 28.0973053 75.9979248 C25.96812702 75.99256789 23.83894936 75.97497795 21.70996094 75.94604492 C18.44608356 75.90415975 15.18426701 75.90497843 11.92016602 75.91186523 C9.85179226 75.90137395 7.78342917 75.88843619 5.71508789 75.87280273 C4.73692612 75.87260132 3.75876434 75.8723999 2.7509613 75.87219238 C1.84314407 75.85628052 0.93532684 75.84036865 0 75.82397461 C-0.7984584 75.81555542 -1.59691681 75.80713623 -2.41957092 75.79846191 C-4.49975586 75.40405273 -4.49975586 75.40405273 -6.25672913 74.29199219 C-8.11805621 71.46496302 -7.88130667 69.13983719 -7.88793945 65.77709961 C-7.89319641 65.10848404 -7.89845337 64.43986847 -7.90386963 63.75099182 C-7.91707111 61.54135766 -7.90833167 59.33244419 -7.89819336 57.12280273 C-7.90021407 55.58727887 -7.90312548 54.05175593 -7.90689087 52.51623535 C-7.9113144 49.29824689 -7.90488245 46.08050825 -7.89086914 42.86254883 C-7.87377697 38.73631657 -7.88361804 34.6106697 -7.90158653 30.48445892 C-7.91242374 27.31373682 -7.90897838 24.14315364 -7.90120316 20.97242737 C-7.89920096 19.45097281 -7.90166112 17.92950566 -7.90864182 16.4080658 C-7.91625558 14.28203895 -7.90465468 12.1569619 -7.88793945 10.03100586 C-7.88555267 8.82093872 -7.88316589 7.61087158 -7.88070679 6.36413574 C-7.49975586 3.40405273 -7.49975586 3.40405273 -6.25672913 1.51512146 C-4.02993605 0.10694969 -2.62943612 0.01779279 0 0 Z " fill="#000000" transform="translate(75.499755859375,180.595947265625)"/>
<path d="M0 0 C1.94140625 0.3359375 1.94140625 0.3359375 4.44140625 1.7734375 C6.73438414 5.69060806 6.72122492 8.91236432 5.94140625 13.3359375 C3.53588594 20.70769329 -0.31630633 25.51342727 -7.05859375 29.3359375 C-10.81287538 30.58736471 -14.35592155 30.5295334 -18.26953125 30.58203125 C-19.92318237 30.61497024 -21.57682807 30.64818188 -23.23046875 30.68164062 C-25.83296995 30.72902579 -28.43544928 30.7734655 -31.03808594 30.81274414 C-33.55296492 30.85256067 -36.06739926 30.90408023 -38.58203125 30.95703125 C-39.35614349 30.9654454 -40.13025574 30.97385956 -40.92782593 30.98252869 C-45.02071361 31.07574501 -48.45300802 31.29816754 -52.05859375 33.3359375 C-53.10321475 36.11675491 -53.10321475 36.11675491 -53.49609375 39.3984375 C-54.99419714 47.00678283 -57.72769229 53.27954245 -64.24609375 57.8359375 C-68.98059702 60.36100591 -73.02295333 60.51165273 -78.26953125 60.58203125 C-79.92318237 60.61497024 -81.57682807 60.64818188 -83.23046875 60.68164062 C-85.83296995 60.72902579 -88.43544928 60.7734655 -91.03808594 60.81274414 C-93.55296492 60.85256067 -96.06739926 60.90408023 -98.58203125 60.95703125 C-99.35614349 60.9654454 -100.13025574 60.97385956 -100.92782593 60.98252869 C-105.0341634 61.07605133 -108.4148359 61.35757281 -112.05859375 63.3359375 C-113.18973606 65.38588785 -113.18973606 65.38588785 -113.68359375 67.7734375 C-114.53767685 71.13985597 -115.22078507 73.21258889 -118.05859375 75.3359375 C-122.37803434 75.81587534 -124.79494899 76.06253323 -128.55859375 73.8984375 C-130.85157164 69.98126694 -130.83841242 66.75951068 -130.05859375 62.3359375 C-127.65307344 54.96418171 -123.80088117 50.15844773 -117.05859375 46.3359375 C-113.30431212 45.08451029 -109.76126595 45.1423416 -105.84765625 45.08984375 C-104.19400513 45.05690476 -102.54035943 45.02369312 -100.88671875 44.99023438 C-98.28421755 44.94284921 -95.68173822 44.8984095 -93.07910156 44.85913086 C-90.56422258 44.81931433 -88.04978824 44.76779477 -85.53515625 44.71484375 C-84.76104401 44.7064296 -83.98693176 44.69801544 -83.18936157 44.68934631 C-79.09647389 44.59612999 -75.66417948 44.37370746 -72.05859375 42.3359375 C-71.01397275 39.55512009 -71.01397275 39.55512009 -70.62109375 36.2734375 C-69.12299036 28.66509217 -66.38949521 22.39233255 -59.87109375 17.8359375 C-55.13659048 15.31086909 -51.09423417 15.16022227 -45.84765625 15.08984375 C-44.19400513 15.05690476 -42.54035943 15.02369312 -40.88671875 14.99023438 C-38.28421755 14.94284921 -35.68173822 14.8984095 -33.07910156 14.85913086 C-30.56422258 14.81931433 -28.04978824 14.76779477 -25.53515625 14.71484375 C-24.76104401 14.7064296 -23.98693176 14.69801544 -23.18936157 14.68934631 C-19.0830241 14.59582367 -15.7023516 14.31430219 -12.05859375 12.3359375 C-10.92745144 10.28598715 -10.92745144 10.28598715 -10.43359375 7.8984375 C-8.85091409 1.66021312 -6.74915969 -0.32316418 0 0 Z " fill="#000000" transform="translate(160.05859375,90.6640625)"/>
<path d="M0 0 C0.93106567 -0.00945648 1.86213135 -0.01891296 2.82141113 -0.02865601 C4.32617004 -0.01954697 4.32617004 -0.01954697 5.86132812 -0.01025391 C7.4091095 -0.01455917 7.4091095 -0.01455917 8.98815918 -0.01895142 C11.17033436 -0.02099342 13.35252778 -0.01545411 15.53466797 -0.00292969 C18.87964713 0.01312154 22.22341791 -0.00277432 25.56835938 -0.02197266 C27.68685163 -0.01999025 29.80534314 -0.01614663 31.92382812 -0.01025391 C32.92700073 -0.0163266 33.93017334 -0.02239929 34.96374512 -0.02865601 C36.36034363 -0.01447128 36.36034363 -0.01447128 37.78515625 0 C38.60439575 0.00238678 39.42363525 0.00477356 40.2677002 0.00723267 C42.89090143 0.47752366 43.75986635 1.32491497 45.39257812 3.38818359 C47.44267209 8.68826424 46.57852034 15.04210234 46.57788086 20.65991211 C46.58006727 22.81497959 46.59824319 24.96953469 46.6171875 27.12451172 C46.62012194 28.50276519 46.6221064 29.88102107 46.62304688 31.25927734 C46.62715576 32.50636475 46.63126465 33.75345215 46.63549805 35.03833008 C46.31663898 39.43538055 45.52512634 42.25563538 42.39257812 45.38818359 C40.38795471 45.64888 40.38795471 45.64888 37.89868164 45.6628418 C36.50196983 45.67713982 36.50196983 45.67713982 35.07704163 45.69172668 C33.56454079 45.69035957 33.56454079 45.69035957 32.02148438 45.68896484 C30.98821518 45.69324997 29.95494598 45.6975351 28.8903656 45.70195007 C26.70222711 45.70770043 24.5140695 45.70818847 22.32592773 45.70385742 C18.97216254 45.70069968 15.61928088 45.72414069 12.265625 45.74951172 C10.14257924 45.7517848 8.0195311 45.75248817 5.89648438 45.75146484 C4.89017471 45.76067459 3.88386505 45.76988434 2.84706116 45.77937317 C1.91276779 45.77314438 0.97847443 45.76691559 0.01586914 45.76049805 C-0.80638657 45.76112747 -1.62864227 45.7617569 -2.47581482 45.7624054 C-5.15351972 45.29231146 -6.03045384 44.58236582 -7.60742188 42.38818359 C-7.90583667 39.41079223 -8.02769256 36.64700148 -8.00585938 33.66943359 C-8.01016464 32.38800476 -8.01016464 32.38800476 -8.01455688 31.08068848 C-8.01659768 29.27513974 -8.0110667 27.4695689 -7.99853516 25.6640625 C-7.98248131 22.89842348 -7.99838287 20.13424585 -8.01757812 17.36865234 C-8.0155957 15.61474286 -8.01175202 13.86083429 -8.00585938 12.10693359 C-8.01193207 11.27875122 -8.01800476 10.45056885 -8.02426147 9.59729004 C-7.9540028 3.86974894 -7.9540028 3.86974894 -6.37112427 1.67037964 C-4.10846688 0.02544773 -2.78378427 0.0081103 0 0 Z " fill="#000000" transform="translate(7.607421875,210.61181640625)"/>
</svg>
