<?xml version="1.0" encoding="UTF-8"?>
<svg version="1.1" xmlns="http://www.w3.org/2000/svg" width="256" height="256">
<path d="M0 0 C1.75136765 0.64919655 1.75136765 0.64919655 3.53811646 1.31150818 C6.67591437 2.47583431 9.81137456 3.64608402 12.94592285 4.81910706 C16.17694953 6.02661852 19.41076662 7.22660203 22.64453125 8.42675781 C23.9364686 8.90632485 25.22839977 9.38590856 26.52032471 9.86550903 C27.15709389 10.10189213 27.79386307 10.33827522 28.44992828 10.58182144 C30.37173945 11.29566389 32.2931875 12.01047562 34.21453857 12.72555542 C41.49164462 15.43299045 48.77642128 18.11738473 56.078125 20.7578125 C56.86879364 21.04376785 57.65946228 21.32972321 58.47409058 21.62434387 C61.34260123 22.66046047 64.21170972 23.69486152 67.0824585 24.72476196 C68.95418693 25.39637745 70.82479053 26.0711254 72.6953125 26.74609375 C74.21705078 27.29185059 74.21705078 27.29185059 75.76953125 27.84863281 C78.0078125 28.73046875 78.0078125 28.73046875 79.0078125 29.73046875 C79.12974579 32.54114834 79.1864633 35.32766151 79.20068359 38.13964844 C79.21294983 39.46452271 79.21294983 39.46452271 79.22546387 40.81616211 C79.25041505 43.76154911 79.26687705 46.70688686 79.28125 49.65234375 C79.28657368 50.66227638 79.29189735 51.67220901 79.29738235 52.71274567 C79.32418214 58.07964825 79.34351713 63.44652726 79.35791016 68.81347656 C79.37113801 73.22254707 79.39877062 77.63114244 79.43994141 82.04003906 C79.48984168 87.38405199 79.51410359 92.72764066 79.52113724 98.07187653 C79.52776923 100.09206007 79.54277476 102.11223723 79.56702805 104.13228607 C79.76336301 121.50591713 77.853374 139.11036092 69.7578125 154.79296875 C69.37286621 155.56842041 68.98791992 156.34387207 68.59130859 157.14282227 C65.10374523 163.95555533 60.99694006 169.90844552 56.0078125 175.73046875 C55.17636719 176.72304687 54.34492188 177.715625 53.48828125 178.73828125 C37.36853144 197.45596552 8.9889568 217.55718826 -15.9921875 220.73046875 C-41.95264146 218.97638402 -71.57003677 196.60842861 -88.43017578 178.15673828 C-103.66434997 160.65869624 -113.4179368 137.26162256 -113.21923828 113.96630859 C-113.21953033 113.0480127 -113.21982239 112.1297168 -113.22012329 111.18359375 C-113.21874388 108.18609754 -113.20324886 105.18885836 -113.1875 102.19140625 C-113.18376492 100.09819677 -113.18092029 98.00498554 -113.17892456 95.91177368 C-113.17132706 90.43079715 -113.15171229 84.9499284 -113.1295166 79.46899414 C-113.10897412 73.86476092 -113.09990495 68.2605101 -113.08984375 62.65625 C-113.06846243 51.68094251 -113.03437386 40.70571463 -112.9921875 29.73046875 C-105.89533021 26.72490713 -98.78569777 23.83659991 -91.53125 21.234375 C-90.67382706 20.92382172 -89.81640411 20.61326843 -88.93299866 20.29330444 C-86.16211682 19.29024338 -83.38980509 18.29122105 -80.6171875 17.29296875 C-76.69860035 15.88061417 -72.78060319 14.46664134 -68.86328125 13.05078125 C-67.87618668 12.69412888 -66.8890921 12.3374765 -65.87208557 11.97001648 C-59.19315021 9.54901718 -52.54211196 7.06137081 -45.90234375 4.53515625 C-43.31857065 3.55845754 -40.73446409 2.58264513 -38.15032959 1.60690308 C-36.51442776 0.98520057 -34.88062991 0.35793087 -33.24908447 -0.27511597 C-30.98494871 -1.15325333 -28.7142737 -2.01195662 -26.44140625 -2.8671875 C-25.78600357 -3.12778961 -25.13060089 -3.38839172 -24.45533752 -3.65689087 C-15.72950355 -6.8849639 -8.22588534 -3.09490201 0 0 Z M-23.21020508 14.53125 C-24.3034761 14.92586426 -25.39674713 15.32047852 -26.52314758 15.72705078 C-27.71562607 16.16130371 -28.90810455 16.59555664 -30.13671875 17.04296875 C-31.37145432 17.4901123 -32.60618988 17.93725586 -33.87834167 18.39794922 C-36.50954609 19.35103867 -39.13995041 20.30629464 -41.76977539 21.26318359 C-45.07412238 22.46542616 -48.37996391 23.66348782 -51.68637276 24.86004639 C-66.84135824 30.34586624 -81.95536133 35.92732843 -96.9921875 41.73046875 C-97.01552628 50.09400647 -97.03321098 58.4575302 -97.04399967 66.82109261 C-97.04918195 70.70609832 -97.05619323 74.59108148 -97.06762695 78.47607422 C-97.07862354 82.23677665 -97.08449922 85.99745761 -97.08706474 89.7581749 C-97.08888918 91.18122571 -97.09245043 92.60427557 -97.09791756 94.02731705 C-97.21082724 124.68176914 -91.72670875 148.99043584 -69.9921875 171.73046875 C-69.09113281 172.74367187 -69.09113281 172.74367187 -68.171875 173.77734375 C-56.41501252 186.50122089 -35.84941209 198.7137082 -18.9921875 202.73046875 C2.49149991 201.66767149 25.65977143 183.92451835 39.8203125 168.79296875 C59.43567712 146.30706296 63.21665478 120.8664561 63.10546875 91.92578125 C63.10359729 90.46605478 63.10217684 89.00632767 63.10118103 87.54660034 C63.09741307 83.75573914 63.08763369 79.96491795 63.07647705 76.17407227 C63.0661379 72.28532451 63.06165698 68.39657012 63.05664062 64.5078125 C63.04600459 56.9153466 63.02899951 49.32291334 63.0078125 41.73046875 C46.64470818 35.55477556 30.24379137 29.48774152 13.80859375 23.5065918 C10.68546447 22.36923009 7.56345045 21.22890146 4.4419117 20.08718777 C1.42583433 18.98501664 -1.59187405 17.88732899 -4.609375 16.7890625 C-5.72682098 16.3798204 -6.84426697 15.97057831 -7.99557495 15.54893494 C-9.01910065 15.17756912 -10.04262634 14.80620331 -11.09716797 14.42358398 C-11.99740692 14.09543198 -12.89764587 13.76727997 -13.82516479 13.42918396 C-17.51310535 12.24007775 -19.63352183 13.23471332 -23.21020508 14.53125 Z " fill="#000000" transform="translate(144.9921875,20.26953125)"/>
<path d="M0 0 C3.63303084 1.69586126 5.94549046 3.73800488 8.75 6.625 C9.54921875 7.44226563 10.3484375 8.25953125 11.171875 9.1015625 C11.77515625 9.72804688 12.3784375 10.35453125 13 11 C11.72113231 13.80387058 10.39618952 15.85248535 8.21591187 18.02459717 C7.64941422 18.59384415 7.08291656 19.16309113 6.49925232 19.74958801 C5.87994339 20.36170639 5.26063446 20.97382477 4.62255859 21.60449219 C3.96877731 22.25856552 3.31499603 22.91263885 2.6414032 23.58653259 C0.48178862 25.74475514 -1.6848212 27.89580936 -3.8515625 30.046875 C-5.35129616 31.54287809 -6.85058853 33.03932369 -8.34945679 34.53619385 C-12.29389812 38.47300225 -16.24430894 42.40376734 -20.19598389 46.33331299 C-24.22802153 50.34488498 -28.25439714 54.36213094 -32.28125 58.37890625 C-40.18196213 66.25817445 -48.0889909 74.13107125 -56 82 C-59.13738154 80.60919475 -61.25475281 78.98977796 -63.66699219 76.56005859 C-64.36741638 75.85948334 -65.06784058 75.15890808 -65.78948975 74.43710327 C-66.90689545 73.30421371 -66.90689545 73.30421371 -68.046875 72.1484375 C-68.81807678 71.37440582 -69.58927856 70.60037415 -70.3838501 69.80288696 C-72.84396856 67.33158077 -75.29703848 64.85340817 -77.75 62.375 C-79.41750894 60.69745948 -81.08547232 59.02037055 -82.75390625 57.34375 C-86.8412237 53.23439081 -90.92277696 49.11937353 -95 45 C-93.30413874 41.36696916 -91.26199512 39.05450954 -88.375 36.25 C-87.55773437 35.45078125 -86.74046875 34.6515625 -85.8984375 33.828125 C-85.27195312 33.22484375 -84.64546875 32.6215625 -84 32 C-80.13671373 33.5847358 -77.71123077 36.05956887 -74.796875 39.0078125 C-74.3142218 39.49329559 -73.8315686 39.97877869 -73.33428955 40.47897339 C-71.80141438 42.02299866 -70.27565996 43.57384824 -68.75 45.125 C-67.70879639 46.17624009 -66.66713459 47.22702657 -65.625 48.27734375 C-63.07800536 50.84633004 -60.53734823 53.42148161 -58 56 C-54.10604884 54.41600411 -51.48847765 51.75803057 -48.58886719 48.81591797 C-47.79795181 48.02544067 -47.79795181 48.02544067 -46.99105835 47.21899414 C-45.25487928 45.48142524 -43.525886 43.73688686 -41.796875 41.9921875 C-40.59233563 40.78391678 -39.38735303 39.57608778 -38.1819458 38.36868286 C-35.01451894 35.19362923 -31.85314487 32.01261478 -28.69299316 28.83032227 C-25.46562911 25.58247924 -22.23257772 22.34030867 -19 19.09765625 C-12.66108697 12.73731018 -6.32855376 6.37065247 0 0 Z " fill="#000000" transform="translate(169,90)"/>
</svg>
