<?xml version="1.0" encoding="UTF-8"?>
<svg version="1.1" xmlns="http://www.w3.org/2000/svg" width="256" height="256">
<path d="M0 0 C10.1679591 8.45496445 17.17489255 20.03416563 20 33 C22.15505838 61.29330427 8.66615161 80.97916641 -5.62744141 104.14746094 C-8.44562485 108.71795596 -11.24412007 113.30046083 -14.04296875 117.8828125 C-14.53380447 118.68637177 -15.0246402 119.48993103 -15.53034973 120.31784058 C-16.68706566 122.21179254 -17.84362643 124.105839 -19 126 C-17.71947754 126.00410889 -16.43895508 126.00821777 -15.11962891 126.01245117 C-10.32951627 126.03436471 -5.54021083 126.0887803 -0.75048828 126.15258789 C1.31518772 126.17566176 3.38097959 126.19013848 5.44677734 126.19555664 C8.43138969 126.20492409 11.41420597 126.24608399 14.3984375 126.29296875 C15.30927094 126.2890361 16.22010437 126.28510345 17.15853882 126.28105164 C25.24635707 126.46155313 31.57216023 129.18155397 37.8125 134.3125 C45.10552793 143.27250574 46.89860279 150.39410201 46 162 C44.17043313 169.16144745 39.8797208 175.56095728 33.6015625 179.5078125 C26.58272818 183.1963891 20.5466323 184.12035489 12.62109375 184.1418457 C11.90809113 184.14532013 11.1950885 184.14879456 10.46047974 184.15237427 C8.92183195 184.15969032 7.38317389 184.16505765 5.84451294 184.16866493 C3.40594072 184.17587455 0.96756461 184.19157228 -1.47094727 184.21000671 C-8.4008524 184.26227984 -15.33064388 184.31046811 -22.26074219 184.32592773 C-26.50836232 184.33602175 -30.75547841 184.36537288 -35.00289917 184.40724754 C-36.61673162 184.41953305 -38.23063527 184.42468328 -39.84451294 184.42244911 C-42.10391943 184.42008978 -44.36188276 184.44230455 -46.62109375 184.4699707 C-47.9042749 184.47583694 -49.18745605 184.48170319 -50.50952148 184.48774719 C-54.62947402 185.09237984 -56.78264221 186.39975962 -60 189 C-62.6502781 193.06375976 -63.61682094 196.16823601 -63 201 C-61.57378316 203.71126384 -61.57378316 203.71126384 -60 206 C-60 206.66 -60 207.32 -60 208 C-53.27984724 210.7136421 -47.36517836 211.44305897 -40.15600586 211.43237305 C-39.11105957 211.4425647 -38.06611328 211.45275635 -36.98950195 211.46325684 C-33.56456036 211.4932479 -30.13989909 211.50263168 -26.71484375 211.51171875 C-24.32873109 211.52857569 -21.94262725 211.5467273 -19.55653381 211.56611633 C-13.29801186 211.61351187 -7.0395257 211.64338894 -0.78088379 211.66955566 C5.61424831 211.69941383 12.00925723 211.74592613 18.40429688 211.79101562 C30.93613079 211.87692997 43.46799466 211.94489427 56 212 C56.14099121 211.05455322 56.28198242 210.10910645 56.42724609 209.13500977 C57.53886543 203.05048125 61.80248258 198.65106906 66.6875 195.0625 C70 193 70 193 73 192 C73.00146656 191.42131542 73.00293312 190.84263084 73.00444412 190.24641037 C73.04149385 176.16650904 73.10048393 162.08684267 73.18390274 148.0071373 C73.22371432 141.19827631 73.25609592 134.38953124 73.27099609 127.58056641 C73.28539051 121.01224727 73.32047731 114.44425069 73.36830902 107.87607574 C73.38317157 105.36743538 73.39104379 102.85874375 73.39188385 100.35005951 C73.39424052 96.84203068 73.42121696 93.33500511 73.45410156 89.82714844 C73.44655602 88.26376991 73.44655602 88.26376991 73.43885803 86.66880798 C73.54066138 79.67134761 73.54066138 79.67134761 75.81015015 76.35437012 C79.19368187 74.26173612 82.20640016 74.3686905 86 75 C89.66373446 76.06793473 93.14448764 77.48460679 96.6640625 78.953125 C97.68264847 79.36500565 98.70123444 79.77688629 99.75068665 80.20124817 C103.04760265 81.53779935 106.33625186 82.89349033 109.625 84.25 C111.88432799 85.17111456 114.14417745 86.0909511 116.40454102 87.00952148 C120.87664901 88.82808735 125.34607434 90.65303358 129.81396484 92.48193359 C135.14810773 94.66022699 140.49831531 96.79345026 145.86328125 98.89453125 C146.57534729 99.17430817 147.28741333 99.45408508 148.02105713 99.74234009 C151.21339057 100.9963799 154.4076559 102.24460484 157.60595703 103.48339844 C158.69376465 103.91297852 159.78157227 104.34255859 160.90234375 104.78515625 C162.28667603 105.32474976 162.28667603 105.32474976 163.69897461 105.87524414 C166.00903351 107.00441564 167.38855154 108.01127958 169 110 C169.46875 112.12109375 169.46875 112.12109375 169.5 114.4375 C169.54640625 115.58025391 169.54640625 115.58025391 169.59375 116.74609375 C168.71415652 120.08507689 166.77688512 121.0058815 164 123 C161.74140105 124.21771716 159.50909377 125.35248589 157.19140625 126.44140625 C156.19019745 126.922146 156.19019745 126.922146 155.16876221 127.41259766 C153.72395595 128.10581299 152.27781012 128.79624189 150.83047485 129.48416138 C146.92714285 131.34005217 143.03420472 133.21750692 139.140625 135.09375 C138.32507645 135.48623428 137.50952789 135.87871857 136.66926575 136.28309631 C127.00198132 140.94573503 117.40623732 145.7508239 107.8125 150.5625 C106.96519318 150.9871756 106.11788635 151.4118512 105.24490356 151.84939575 C100.49520787 154.2301714 95.74735059 156.61454143 91 159 C91 169.89 91 180.78 91 192 C94.96 193.98 94.96 193.98 99 196 C104.86174444 200.71284253 108.14140715 207.94481559 109.3828125 215.25390625 C109.77970349 222.64930828 107.04904518 229.63371149 103.25 235.875 C97.12939282 241.65557345 90.55845385 244.63238275 82.125 245.3125 C73.84361424 245.04071707 66.99012354 241.61151528 61 236 C57 231.23380282 57 231.23380282 57 228 C56.16980897 228.00276538 56.16980897 228.00276538 55.32284641 228.00558662 C41.82551368 228.0498494 28.32819375 228.08276932 14.83080387 228.10362434 C8.30343478 228.11404967 1.77611818 228.12818614 -4.7512207 228.15087891 C-11.05357439 228.17265172 -17.35587766 228.18457804 -23.65826607 228.18975449 C-26.05954341 228.19344226 -28.46081808 228.20064353 -30.8620739 228.21146011 C-34.23224671 228.22603384 -37.60221272 228.22797546 -40.97241211 228.22705078 C-42.45272163 228.23783661 -42.45272163 228.23783661 -43.9629364 228.24884033 C-54.19146485 228.21858628 -62.86472431 226.53775456 -71 220 C-77.55015982 212.66430441 -80.47793824 205.38222396 -80.25390625 195.5546875 C-79.28872211 185.84345013 -74.43458997 179.05051814 -67.390625 172.61328125 C-61.6247937 168.72228725 -56.08546966 167.62598114 -49.22631836 167.61523438 C-48.49512283 167.6098616 -47.76392731 167.60448883 -47.01057434 167.59895325 C-45.43815168 167.58924158 -43.86567584 167.58621089 -42.29322624 167.58930969 C-39.79944011 167.59382313 -37.30635041 167.57969033 -34.81263733 167.56091309 C-28.62347832 167.51809033 -22.43433728 167.50689649 -16.24505615 167.49468994 C-11.00270772 167.48313373 -5.76067959 167.45950072 -0.51846504 167.41999817 C1.92940377 167.4064887 4.37683123 167.41058659 6.82472229 167.41540527 C8.33505811 167.40606002 9.84538913 167.39589004 11.35571289 167.38476562 C13.32139977 167.38168396 13.32139977 167.38168396 15.32679749 167.37854004 C20.33606711 166.86231228 24.49406299 165.70025146 27.9375 161.8125 C29.71087587 157.11826974 29.46873266 152.96015475 28.3125 148.125 C26.56677032 145.29858051 25.13847182 144.99846149 22 144 C19.18214468 143.69001085 19.18214468 143.69001085 16.17163086 143.71289062 C15.02371567 143.69947632 13.87580048 143.68606201 12.69309998 143.67224121 C10.84761314 143.66432556 10.84761314 143.66432556 8.96484375 143.65625 C7.05862999 143.6343158 7.05862999 143.6343158 5.11390686 143.61193848 C0.36593746 143.55755537 -4.38205208 143.5203346 -9.13018799 143.48431396 C-13.78616282 143.44807587 -18.44184232 143.39736335 -23.09765625 143.34375 C-24.33000504 143.3384729 -25.56235382 143.3331958 -26.83204651 143.32775879 C-27.97680954 143.31434448 -29.12157257 143.30093018 -30.30102539 143.28710938 C-31.30742569 143.27981812 -32.31382599 143.27252686 -33.35072327 143.26501465 C-36.08635992 142.99136117 -37.69965397 142.47778649 -40 141 C-41.65307617 138.75463867 -41.65307617 138.75463867 -43.29296875 135.91796875 C-43.91486084 134.85481445 -44.53675293 133.79166016 -45.17749023 132.69628906 C-45.84762925 131.52677049 -46.51762871 130.35717194 -47.1875 129.1875 C-47.8896771 127.97954433 -48.59290245 126.77219745 -49.29711914 125.56542969 C-50.77956309 123.02175672 -52.25621136 120.47484784 -53.72851562 117.92529297 C-57.07239579 112.13898429 -60.46038094 106.3785596 -63.84381104 100.61532593 C-64.93304804 98.75759298 -66.01943577 96.89822262 -67.10498047 95.03833008 C-70.40326415 89.39125418 -73.73404561 83.77102332 -77.17797852 78.21142578 C-86.65530917 62.87067235 -89.32448953 46.9189313 -86.3515625 29.1171875 C-82.38756459 15.05685304 -73.42831348 3.67358176 -61 -3.875 C-41.41961089 -14.63674058 -18.09362877 -13.32660285 0 0 Z M-64.46484375 20.94921875 C-70.76565546 29.36633363 -72.81823724 39.37167414 -71.625 49.8125 C-68.11036624 66.29932746 -56.58692836 81.47750902 -48.06903076 95.81289673 C-45.93411351 99.40950345 -43.82639501 103.01998968 -41.74609375 106.6484375 C-41.28315918 107.45224854 -40.82022461 108.25605957 -40.34326172 109.08422852 C-39.51256104 110.52948302 -38.68703731 111.97773028 -37.86767578 113.42944336 C-36.96708155 114.98628927 -35.99214707 116.49983889 -35 118 C-34.34 118 -33.68 118 -33 118 C-31.62609959 115.98588794 -30.39091428 113.98726135 -29.17578125 111.87890625 C-28.79717453 111.23599136 -28.41856781 110.59307648 -28.02848816 109.93067932 C-26.78276143 107.812008 -25.54746157 105.68746147 -24.3125 103.5625 C-23.025966 101.36372883 -21.73732462 99.16620368 -20.44833374 96.96887207 C-19.57560325 95.48100376 -18.70372256 93.99263667 -17.83267212 92.50378418 C-15.10940288 87.85726544 -12.33674484 83.24543456 -9.51171875 78.66015625 C-8.83133545 77.55019287 -8.15095215 76.44022949 -7.44995117 75.29663086 C-6.18640887 73.24145645 -4.91491313 71.19114226 -3.6340332 69.14672852 C3.16861098 58.01853696 5.31194141 47.94109193 4 35 C1.48067194 24.5819091 -5.093307 16.1213272 -13.875 10.0625 C-31.99077166 -0.09385707 -51.66539296 5.46742292 -64.46484375 20.94921875 Z M90 95 C90 110.18 90 125.36 90 141 C102.12922188 135.25457911 114.20248983 129.46724307 126.1875 123.4375 C127.64248107 122.70748882 129.09755906 121.97767077 130.55273438 121.24804688 C134.03626665 119.50090058 137.51851503 117.75122209 141 116 C139.64129057 113.28258113 138.31728877 113.13534869 135.51196289 112.02880859 C134.55749771 111.64856537 133.60303253 111.26832214 132.61964417 110.8765564 C131.58113815 110.47127716 130.54263214 110.06599792 129.47265625 109.6484375 C128.41340439 109.22954254 127.35415253 108.81064758 126.26280212 108.37905884 C124.01869743 107.49324027 121.77325762 106.61079784 119.52661133 105.73144531 C116.0777187 104.3809592 112.63331322 103.01951132 109.18945312 101.65625 C107.01327744 100.79882759 104.8368533 99.94203547 102.66015625 99.0859375 C101.62367447 98.6766098 100.58719269 98.2672821 99.51930237 97.84555054 C98.56168503 97.47161163 97.60406769 97.09767273 96.61743164 96.71240234 C95.77217422 96.38090179 94.92691681 96.04940125 94.05604553 95.70785522 C92.04723658 94.89149072 92.04723658 94.89149072 90 95 Z M72.1875 212.3125 C70.74555326 215.57585314 70.49464486 217.46251404 71 221 C72.73822228 224.34768735 74.09516422 226.43753452 77.3125 228.4375 C80.93900889 229.19653674 83.41575392 228.96006591 87 228 C90.51038651 225.40536649 91.77811815 223.76271886 93 219.5625 C93 215.41043888 92.33117811 213.41906123 90 210 C87.24631394 207.76728157 85.51741376 207.06467672 82 206.625 C77.44162752 207.19479656 75.01098899 208.7101175 72.1875 212.3125 Z " fill="#000000" transform="translate(87,11)"/>
<path d="M0 0 C5.75813377 3.28508914 9.62397344 7.4513563 12.0546875 13.765625 C13.79152741 20.98019079 13.29162988 28.29584616 9.890625 34.90625 C6.16317626 40.43164461 0.92550277 43.99739263 -5.4375 45.875 C-13.75650209 46.93549602 -20.60974392 45.92899738 -27.4375 40.875 C-32.66980824 35.490716 -35.7028577 29.77188723 -35.875 22.1875 C-35.72359644 14.94684717 -33.7655188 9.10908278 -28.5 3.9921875 C-19.95790312 -2.70559301 -10.12304568 -4.71297486 0 0 Z M-19.4375 18.875 C-20.27083333 21.875 -20.27083333 21.875 -19.4375 24.875 C-16.98155875 28.19774404 -15.5118356 29.65118008 -11.4375 30.5 C-7.3631644 29.65118008 -5.89344125 28.19774404 -3.4375 24.875 C-2.60416667 21.875 -2.60416667 21.875 -3.4375 18.875 C-5.89344125 15.55225596 -7.3631644 14.09881992 -11.4375 13.25 C-15.5118356 14.09881992 -16.98155875 15.55225596 -19.4375 18.875 Z " fill="#000000" transform="translate(64.4375,33.125)"/>
</svg>
